<?xml version="1.0" encoding="utf-8"?>
<!-- Generator: Adobe Illustrator 24.1.3, SVG Export Plug-In . SVG Version: 6.00 Build 0)  -->
<svg version="1.1" id="Layer_1" xmlns="http://www.w3.org/2000/svg" xmlns:xlink="http://www.w3.org/1999/xlink" x="0px" y="0px"
	 viewBox="0 0 24 24" style="enable-background:new 0 0 24 24;" xml:space="preserve">
<style type="text/css">
	.st0{fill:none;}
</style>
<path class="st0" d="M0,0h24v24H0V0z"/>
<path d="M11.8,6.1c1.6,0,2.9-1.3,2.9-2.9s-1.3-2.9-2.9-2.9S8.9,1.6,8.9,3.2S10.2,6.1,11.8,6.1z M11.8,9c-1.6,0-2.9,1.3-2.9,2.9
	s1.3,2.9,2.9,2.9s2.9-1.3,2.9-2.9S13.4,9,11.8,9z M11.8,17.7c-1.6,0-2.9,1.3-2.9,2.9s1.3,2.9,2.9,2.9s2.9-1.3,2.9-2.9
	S13.4,17.7,11.8,17.7z"/>
<path d="M21.1,6.1c1.6,0,2.9-1.3,2.9-2.9s-1.3-2.9-2.9-2.9s-2.9,1.3-2.9,2.9S19.5,6.1,21.1,6.1z M21.1,9c-1.6,0-2.9,1.3-2.9,2.9
	s1.3,2.9,2.9,2.9s2.9-1.3,2.9-2.9S22.7,9,21.1,9z M21.1,17.7c-1.6,0-2.9,1.3-2.9,2.9s1.3,2.9,2.9,2.9s2.9-1.3,2.9-2.9
	S22.7,17.7,21.1,17.7z"/>
<path d="M2.9,6.1c1.6,0,2.9-1.3,2.9-2.9S4.5,0.3,2.9,0.3S0,1.6,0,3.2S1.3,6.1,2.9,6.1z M2.9,9C1.3,9,0,10.3,0,11.9s1.3,2.9,2.9,2.9
	s2.9-1.3,2.9-2.9S4.5,9,2.9,9z M2.9,17.7C1.3,17.7,0,19,0,20.6s1.3,2.9,2.9,2.9s2.9-1.3,2.9-2.9S4.5,17.7,2.9,17.7z"/>
</svg>
